<?xml version="1.0" standalone="no"?><!DOCTYPE svg PUBLIC "-//W3C//DTD SVG 1.1//EN" "http://www.w3.org/Graphics/SVG/1.1/DTD/svg11.dtd"><svg t="1530093692078" class="icon" style="" viewBox="0 0 1024 1024" version="1.1" xmlns="http://www.w3.org/2000/svg" p-id="1940" xmlns:xlink="http://www.w3.org/1999/xlink" width="48" height="48"><defs><style type="text/css"></style></defs><path d="M517.276 265.453q-50.909 0-88 36.364-36.364 37.091-36.364 88.727 0 50.909 36.364 87.273 37.091 36.364 88 36.364 50.909 0 88-36.364 36.364-36.364 36.364-87.273 0-51.636-36.364-88.727-37.091-36.364-88-36.364zM517.276 482.907q-37.818 0-65.455-27.636-27.636-26.909-27.636-64.727 0-38.545 27.636-66.182 27.636-27.636 65.455-27.636 37.818 0 65.455 27.636 27.636 27.636 27.636 65.455 0 39.273-27.636 66.182-26.909 26.909-65.455 26.909zM517.276 127.998q-75.636 0-139.636 34.909-64.727 35.636-102.545 96-37.091 60.364-37.091 130.909 0 42.909 12.364 78.545 0 0 0 0.727 8.727 26.909 26.182 53.818 76.364 114.182 228.364 342.545 3.636 7.273 12.364 7.273 7.273 0 12.364-7.273 76.364-114.182 228.364-341.818 16.727-24.727 26.182-54.545 0 0 0-0.727 12.364-35.636 12.364-78.545 0-70.545-37.818-130.909-37.091-60.364-101.818-95.273-64-35.636-139.636-35.636zM755.822 456.726q-10.182 28.364-24 48.727-69.091 104.727-208 314.182-4.364 3.636-6.545 3.636-4.364 0-6.545-3.636-69.091-104-208-312.727-14.545-21.818-22.545-47.273-10.909-35.636-10.909-69.818 0-62.545 33.455-116.364 32.727-53.091 90.182-83.636 57.455-30.545 124.364-30.545 66.909 0 124.364 30.545 57.455 30.545 90.182 83.636 33.455 53.818 33.455 116.364 0 33.455-9.455 66.909z" p-id="1941" fill="#2c2c2c"></path></svg>